<mxfile host="app.diagrams.net" modified="2024-06-19T11:56:34.594Z" agent="Mozilla/5.0 (Windows NT 10.0; Win64; x64) AppleWebKit/537.36 (KHTML, like Gecko) Chrome/123.0.0.0 Safari/537.36 OPR/109.0.0.0" etag="NnOfFrjdOfTdP6x_e1pH" version="24.5.5" type="device">
  <diagram name="Strona-1" id="Jr3mMbtaVBi-UkpUYPGd">
    <mxGraphModel dx="1921" dy="901" grid="1" gridSize="10" guides="1" tooltips="1" connect="1" arrows="1" fold="1" page="1" pageScale="1" pageWidth="827" pageHeight="1169" math="0" shadow="0">
      <root>
        <mxCell id="0" />
        <mxCell id="1" parent="0" />
        <mxCell id="k-DG-WBiUyLJIh9k_wD2-1" value="Użytkownik" style="whiteSpace=wrap;html=1;" vertex="1" parent="1">
          <mxGeometry x="40" y="40" width="120" height="60" as="geometry" />
        </mxCell>
        <mxCell id="k-DG-WBiUyLJIh9k_wD2-2" value="Użytkownik" style="whiteSpace=wrap;html=1;" vertex="1" parent="1">
          <mxGeometry x="40" y="470" width="120" height="60" as="geometry" />
        </mxCell>
        <mxCell id="k-DG-WBiUyLJIh9k_wD2-5" value="" style="endArrow=none;html=1;rounded=0;entryX=0.5;entryY=1;entryDx=0;entryDy=0;exitX=0.5;exitY=0;exitDx=0;exitDy=0;" edge="1" parent="1" source="k-DG-WBiUyLJIh9k_wD2-2" target="k-DG-WBiUyLJIh9k_wD2-1">
          <mxGeometry width="50" height="50" relative="1" as="geometry">
            <mxPoint x="390" y="420" as="sourcePoint" />
            <mxPoint x="440" y="370" as="targetPoint" />
          </mxGeometry>
        </mxCell>
        <mxCell id="k-DG-WBiUyLJIh9k_wD2-6" value="completeMissingValue" style="whiteSpace=wrap;html=1;" vertex="1" parent="1">
          <mxGeometry x="440" y="40" width="130" height="60" as="geometry" />
        </mxCell>
        <mxCell id="k-DG-WBiUyLJIh9k_wD2-7" value="findMissingValue" style="whiteSpace=wrap;html=1;" vertex="1" parent="1">
          <mxGeometry x="720" y="40" width="130" height="60" as="geometry" />
        </mxCell>
        <mxCell id="k-DG-WBiUyLJIh9k_wD2-8" value="findBestEntropy" style="whiteSpace=wrap;html=1;" vertex="1" parent="1">
          <mxGeometry x="890" y="40" width="130" height="60" as="geometry" />
        </mxCell>
        <mxCell id="k-DG-WBiUyLJIh9k_wD2-10" value="fillMissingValue" style="whiteSpace=wrap;html=1;" vertex="1" parent="1">
          <mxGeometry x="1060" y="40" width="130" height="60" as="geometry" />
        </mxCell>
        <mxCell id="k-DG-WBiUyLJIh9k_wD2-11" value="calculateEntropy" style="whiteSpace=wrap;html=1;" vertex="1" parent="1">
          <mxGeometry x="1225.24" y="40" width="130" height="60" as="geometry" />
        </mxCell>
        <mxCell id="k-DG-WBiUyLJIh9k_wD2-12" value="calculateEuclideanDistance" style="whiteSpace=wrap;html=1;" vertex="1" parent="1">
          <mxGeometry x="1670" y="40" width="159.5" height="60" as="geometry" />
        </mxCell>
        <mxCell id="k-DG-WBiUyLJIh9k_wD2-13" value="calculateHammingDistance" style="whiteSpace=wrap;html=1;" vertex="1" parent="1">
          <mxGeometry x="1870" y="40" width="149.5" height="60" as="geometry" />
        </mxCell>
        <mxCell id="k-DG-WBiUyLJIh9k_wD2-14" value="completeMissingValue" style="whiteSpace=wrap;html=1;" vertex="1" parent="1">
          <mxGeometry x="440" y="470" width="130" height="60" as="geometry" />
        </mxCell>
        <mxCell id="k-DG-WBiUyLJIh9k_wD2-15" value="findMissingValue" style="whiteSpace=wrap;html=1;" vertex="1" parent="1">
          <mxGeometry x="710" y="470" width="130" height="60" as="geometry" />
        </mxCell>
        <mxCell id="k-DG-WBiUyLJIh9k_wD2-16" value="findBestEntropy" style="whiteSpace=wrap;html=1;" vertex="1" parent="1">
          <mxGeometry x="890" y="470" width="130" height="60" as="geometry" />
        </mxCell>
        <mxCell id="k-DG-WBiUyLJIh9k_wD2-17" value="fillMissingValue" style="whiteSpace=wrap;html=1;" vertex="1" parent="1">
          <mxGeometry x="1060" y="470" width="130" height="60" as="geometry" />
        </mxCell>
        <mxCell id="k-DG-WBiUyLJIh9k_wD2-18" value="calculateEntropy" style="whiteSpace=wrap;html=1;" vertex="1" parent="1">
          <mxGeometry x="1225.24" y="470" width="130" height="60" as="geometry" />
        </mxCell>
        <mxCell id="k-DG-WBiUyLJIh9k_wD2-19" value="calculateEuclideanDistance" style="whiteSpace=wrap;html=1;" vertex="1" parent="1">
          <mxGeometry x="1670.5" y="470" width="159" height="60" as="geometry" />
        </mxCell>
        <mxCell id="k-DG-WBiUyLJIh9k_wD2-20" value="calculateHammingDistance" style="whiteSpace=wrap;html=1;" vertex="1" parent="1">
          <mxGeometry x="1870" y="470" width="149.5" height="60" as="geometry" />
        </mxCell>
        <mxCell id="k-DG-WBiUyLJIh9k_wD2-21" value="" style="endArrow=none;html=1;rounded=0;entryX=0.531;entryY=1.003;entryDx=0;entryDy=0;exitX=0.539;exitY=-0.004;exitDx=0;exitDy=0;exitPerimeter=0;entryPerimeter=0;" edge="1" parent="1" source="k-DG-WBiUyLJIh9k_wD2-14" target="k-DG-WBiUyLJIh9k_wD2-6">
          <mxGeometry width="50" height="50" relative="1" as="geometry">
            <mxPoint x="510.24" y="420" as="sourcePoint" />
            <mxPoint x="510" y="100" as="targetPoint" />
          </mxGeometry>
        </mxCell>
        <mxCell id="k-DG-WBiUyLJIh9k_wD2-22" value="" style="endArrow=none;html=1;rounded=0;entryX=0.462;entryY=1.01;entryDx=0;entryDy=0;entryPerimeter=0;exitX=0.5;exitY=0;exitDx=0;exitDy=0;" edge="1" parent="1" target="k-DG-WBiUyLJIh9k_wD2-7">
          <mxGeometry width="50" height="50" relative="1" as="geometry">
            <mxPoint x="779.9999999999998" y="220" as="sourcePoint" />
            <mxPoint x="740" y="150" as="targetPoint" />
          </mxGeometry>
        </mxCell>
        <mxCell id="k-DG-WBiUyLJIh9k_wD2-24" value="" style="endArrow=none;html=1;rounded=0;entryX=0.5;entryY=1;entryDx=0;entryDy=0;exitX=0.5;exitY=0;exitDx=0;exitDy=0;" edge="1" parent="1" source="k-DG-WBiUyLJIh9k_wD2-16" target="k-DG-WBiUyLJIh9k_wD2-8">
          <mxGeometry width="50" height="50" relative="1" as="geometry">
            <mxPoint x="765" y="370" as="sourcePoint" />
            <mxPoint x="765" y="110" as="targetPoint" />
          </mxGeometry>
        </mxCell>
        <mxCell id="k-DG-WBiUyLJIh9k_wD2-25" value="" style="endArrow=none;html=1;rounded=0;entryX=0.5;entryY=1;entryDx=0;entryDy=0;exitX=0.5;exitY=0;exitDx=0;exitDy=0;" edge="1" parent="1" source="k-DG-WBiUyLJIh9k_wD2-64" target="k-DG-WBiUyLJIh9k_wD2-10">
          <mxGeometry width="50" height="50" relative="1" as="geometry">
            <mxPoint x="935" y="370" as="sourcePoint" />
            <mxPoint x="935" y="110" as="targetPoint" />
          </mxGeometry>
        </mxCell>
        <mxCell id="k-DG-WBiUyLJIh9k_wD2-26" value="" style="endArrow=none;html=1;rounded=0;entryX=0.5;entryY=1;entryDx=0;entryDy=0;exitX=0.5;exitY=0;exitDx=0;exitDy=0;" edge="1" parent="1" source="k-DG-WBiUyLJIh9k_wD2-18" target="k-DG-WBiUyLJIh9k_wD2-11">
          <mxGeometry width="50" height="50" relative="1" as="geometry">
            <mxPoint x="1100.24" y="370" as="sourcePoint" />
            <mxPoint x="1100.24" y="110" as="targetPoint" />
          </mxGeometry>
        </mxCell>
        <mxCell id="k-DG-WBiUyLJIh9k_wD2-27" value="" style="endArrow=none;html=1;rounded=0;entryX=0.5;entryY=1;entryDx=0;entryDy=0;exitX=0.5;exitY=0;exitDx=0;exitDy=0;" edge="1" parent="1" source="k-DG-WBiUyLJIh9k_wD2-19" target="k-DG-WBiUyLJIh9k_wD2-12">
          <mxGeometry width="50" height="50" relative="1" as="geometry">
            <mxPoint x="1544.5" y="370" as="sourcePoint" />
            <mxPoint x="1544.5" y="110" as="targetPoint" />
          </mxGeometry>
        </mxCell>
        <mxCell id="k-DG-WBiUyLJIh9k_wD2-28" value="" style="endArrow=none;html=1;rounded=0;entryX=0.5;entryY=1;entryDx=0;entryDy=0;exitX=0.5;exitY=0;exitDx=0;exitDy=0;" edge="1" parent="1" source="k-DG-WBiUyLJIh9k_wD2-20" target="k-DG-WBiUyLJIh9k_wD2-13">
          <mxGeometry width="50" height="50" relative="1" as="geometry">
            <mxPoint x="1726" y="370" as="sourcePoint" />
            <mxPoint x="1725" y="110" as="targetPoint" />
          </mxGeometry>
        </mxCell>
        <mxCell id="k-DG-WBiUyLJIh9k_wD2-29" value="" style="endArrow=classic;html=1;rounded=0;exitX=0.998;exitY=0.317;exitDx=0;exitDy=0;exitPerimeter=0;" edge="1" parent="1" source="k-DG-WBiUyLJIh9k_wD2-30">
          <mxGeometry width="50" height="50" relative="1" as="geometry">
            <mxPoint x="100" y="140" as="sourcePoint" />
            <mxPoint x="510" y="140" as="targetPoint" />
          </mxGeometry>
        </mxCell>
        <mxCell id="k-DG-WBiUyLJIh9k_wD2-32" value="" style="edgeStyle=none;orthogonalLoop=1;jettySize=auto;html=1;rounded=0;" edge="1" parent="1">
          <mxGeometry width="80" relative="1" as="geometry">
            <mxPoint x="779.9999999999998" y="160" as="sourcePoint" />
            <mxPoint x="780" y="160" as="targetPoint" />
            <Array as="points" />
          </mxGeometry>
        </mxCell>
        <mxCell id="k-DG-WBiUyLJIh9k_wD2-35" value="" style="endArrow=classic;html=1;rounded=0;" edge="1" parent="1" source="k-DG-WBiUyLJIh9k_wD2-36">
          <mxGeometry width="50" height="50" relative="1" as="geometry">
            <mxPoint x="695.24" y="200" as="sourcePoint" />
            <mxPoint x="515.24" y="195" as="targetPoint" />
          </mxGeometry>
        </mxCell>
        <mxCell id="k-DG-WBiUyLJIh9k_wD2-37" value="" style="endArrow=classic;html=1;rounded=0;exitX=1;exitY=0.5;exitDx=0;exitDy=0;" edge="1" parent="1" source="k-DG-WBiUyLJIh9k_wD2-38">
          <mxGeometry width="50" height="50" relative="1" as="geometry">
            <mxPoint x="894.3100000000002" y="240.00999999999988" as="sourcePoint" />
            <mxPoint x="950" y="235" as="targetPoint" />
          </mxGeometry>
        </mxCell>
        <mxCell id="k-DG-WBiUyLJIh9k_wD2-39" value="" style="endArrow=classic;html=1;rounded=0;exitX=0;exitY=0.5;exitDx=0;exitDy=0;" edge="1" parent="1" source="k-DG-WBiUyLJIh9k_wD2-40">
          <mxGeometry width="50" height="50" relative="1" as="geometry">
            <mxPoint x="870.24" y="340" as="sourcePoint" />
            <mxPoint x="510" y="335" as="targetPoint" />
          </mxGeometry>
        </mxCell>
        <mxCell id="k-DG-WBiUyLJIh9k_wD2-43" value="" style="endArrow=classic;html=1;rounded=0;exitX=0;exitY=0.5;exitDx=0;exitDy=0;" edge="1" parent="1" source="k-DG-WBiUyLJIh9k_wD2-44">
          <mxGeometry width="50" height="50" relative="1" as="geometry">
            <mxPoint x="510" y="460" as="sourcePoint" />
            <mxPoint x="100" y="455" as="targetPoint" />
          </mxGeometry>
        </mxCell>
        <mxCell id="k-DG-WBiUyLJIh9k_wD2-45" value="" style="endArrow=classic;html=1;rounded=0;entryX=1;entryY=0.5;entryDx=0;entryDy=0;" edge="1" parent="1" target="k-DG-WBiUyLJIh9k_wD2-40">
          <mxGeometry width="50" height="50" relative="1" as="geometry">
            <mxPoint x="950" y="335" as="sourcePoint" />
            <mxPoint x="595" y="340" as="targetPoint" />
          </mxGeometry>
        </mxCell>
        <mxCell id="k-DG-WBiUyLJIh9k_wD2-46" value="" style="endArrow=none;html=1;rounded=0;entryX=0.539;entryY=1.044;entryDx=0;entryDy=0;exitX=0.31;exitY=0.053;exitDx=0;exitDy=0;exitPerimeter=0;entryPerimeter=0;" edge="1" parent="1" source="k-DG-WBiUyLJIh9k_wD2-56" target="k-DG-WBiUyLJIh9k_wD2-40">
          <mxGeometry width="50" height="50" relative="1" as="geometry">
            <mxPoint x="780" y="470" as="sourcePoint" />
            <mxPoint x="780" y="151" as="targetPoint" />
          </mxGeometry>
        </mxCell>
        <mxCell id="k-DG-WBiUyLJIh9k_wD2-40" value="bestEntropyRecord" style="text;strokeColor=none;align=center;fillColor=none;html=1;verticalAlign=middle;whiteSpace=wrap;rounded=0;" vertex="1" parent="1">
          <mxGeometry x="715" y="320" width="120" height="30" as="geometry" />
        </mxCell>
        <mxCell id="k-DG-WBiUyLJIh9k_wD2-47" value="" style="endArrow=classic;html=1;rounded=0;entryX=0;entryY=0.5;entryDx=0;entryDy=0;" edge="1" parent="1" target="k-DG-WBiUyLJIh9k_wD2-38">
          <mxGeometry width="50" height="50" relative="1" as="geometry">
            <mxPoint x="520" y="235" as="sourcePoint" />
            <mxPoint x="575.24" y="240" as="targetPoint" />
          </mxGeometry>
        </mxCell>
        <mxCell id="k-DG-WBiUyLJIh9k_wD2-48" value="" style="endArrow=classic;html=1;rounded=0;entryX=1;entryY=0.5;entryDx=0;entryDy=0;" edge="1" parent="1" target="k-DG-WBiUyLJIh9k_wD2-36">
          <mxGeometry width="50" height="50" relative="1" as="geometry">
            <mxPoint x="780" y="195" as="sourcePoint" />
            <mxPoint x="730" y="195" as="targetPoint" />
          </mxGeometry>
        </mxCell>
        <mxCell id="k-DG-WBiUyLJIh9k_wD2-36" value="missingRecord" style="text;strokeColor=none;align=center;fillColor=none;html=1;verticalAlign=middle;whiteSpace=wrap;rounded=0;" vertex="1" parent="1">
          <mxGeometry x="610" y="180" width="80" height="30" as="geometry" />
        </mxCell>
        <mxCell id="k-DG-WBiUyLJIh9k_wD2-49" value="" style="endArrow=none;html=1;rounded=0;entryX=0.5;entryY=1;entryDx=0;entryDy=0;" edge="1" parent="1">
          <mxGeometry width="50" height="50" relative="1" as="geometry">
            <mxPoint x="780" y="321" as="sourcePoint" />
            <mxPoint x="779.9999999999998" y="250" as="targetPoint" />
          </mxGeometry>
        </mxCell>
        <mxCell id="k-DG-WBiUyLJIh9k_wD2-38" value="findBestEntropy(listObjectWithMissingValue, missingRecord, distanceType)" style="text;strokeColor=none;align=center;fillColor=none;html=1;verticalAlign=middle;whiteSpace=wrap;rounded=0;" vertex="1" parent="1">
          <mxGeometry x="630" y="220" width="260" height="30" as="geometry" />
        </mxCell>
        <mxCell id="k-DG-WBiUyLJIh9k_wD2-51" value="" style="edgeStyle=none;orthogonalLoop=1;jettySize=auto;html=1;rounded=0;exitX=1.002;exitY=0.651;exitDx=0;exitDy=0;exitPerimeter=0;" edge="1" parent="1" source="k-DG-WBiUyLJIh9k_wD2-33">
          <mxGeometry width="80" relative="1" as="geometry">
            <mxPoint x="510" y="160" as="sourcePoint" />
            <mxPoint x="780" y="160" as="targetPoint" />
            <Array as="points" />
          </mxGeometry>
        </mxCell>
        <mxCell id="k-DG-WBiUyLJIh9k_wD2-52" value="" style="endArrow=classic;html=1;rounded=0;entryX=1;entryY=0.5;entryDx=0;entryDy=0;" edge="1" parent="1" target="k-DG-WBiUyLJIh9k_wD2-44">
          <mxGeometry width="50" height="50" relative="1" as="geometry">
            <mxPoint x="510" y="455" as="sourcePoint" />
            <mxPoint x="100" y="460" as="targetPoint" />
          </mxGeometry>
        </mxCell>
        <mxCell id="k-DG-WBiUyLJIh9k_wD2-44" value="void" style="text;strokeColor=none;align=center;fillColor=none;html=1;verticalAlign=middle;whiteSpace=wrap;rounded=0;" vertex="1" parent="1">
          <mxGeometry x="270" y="440" width="40" height="30" as="geometry" />
        </mxCell>
        <mxCell id="k-DG-WBiUyLJIh9k_wD2-53" value="" style="edgeStyle=none;orthogonalLoop=1;jettySize=auto;html=1;rounded=0;entryX=-0.001;entryY=0.671;entryDx=0;entryDy=0;entryPerimeter=0;" edge="1" parent="1" target="k-DG-WBiUyLJIh9k_wD2-33">
          <mxGeometry width="80" relative="1" as="geometry">
            <mxPoint x="510" y="160" as="sourcePoint" />
            <mxPoint x="780" y="160" as="targetPoint" />
            <Array as="points" />
          </mxGeometry>
        </mxCell>
        <mxCell id="k-DG-WBiUyLJIh9k_wD2-33" value="findMissingRecord(trainRecord)" style="text;strokeColor=none;align=center;fillColor=none;html=1;verticalAlign=middle;whiteSpace=wrap;rounded=0;" vertex="1" parent="1">
          <mxGeometry x="560" y="140" width="180" height="30" as="geometry" />
        </mxCell>
        <mxCell id="k-DG-WBiUyLJIh9k_wD2-54" value="" style="endArrow=classic;html=1;rounded=0;entryX=0.002;entryY=0.331;entryDx=0;entryDy=0;entryPerimeter=0;" edge="1" parent="1" target="k-DG-WBiUyLJIh9k_wD2-30">
          <mxGeometry width="50" height="50" relative="1" as="geometry">
            <mxPoint x="100" y="140" as="sourcePoint" />
            <mxPoint x="510" y="140" as="targetPoint" />
          </mxGeometry>
        </mxCell>
        <mxCell id="k-DG-WBiUyLJIh9k_wD2-30" value="completeMissingValue(listObjectWithMissingValue, distanceType)" style="text;strokeColor=none;align=center;fillColor=none;html=1;verticalAlign=middle;whiteSpace=wrap;rounded=0;" vertex="1" parent="1">
          <mxGeometry x="150" y="130" width="290" height="30" as="geometry" />
        </mxCell>
        <mxCell id="k-DG-WBiUyLJIh9k_wD2-55" value="" style="endArrow=classic;html=1;rounded=0;exitX=1;exitY=0.5;exitDx=0;exitDy=0;" edge="1" parent="1" source="k-DG-WBiUyLJIh9k_wD2-56">
          <mxGeometry width="50" height="50" relative="1" as="geometry">
            <mxPoint x="510" y="390" as="sourcePoint" />
            <mxPoint x="1120" y="395" as="targetPoint" />
          </mxGeometry>
        </mxCell>
        <mxCell id="k-DG-WBiUyLJIh9k_wD2-57" value="" style="endArrow=classic;html=1;rounded=0;entryX=0;entryY=0.5;entryDx=0;entryDy=0;" edge="1" parent="1" target="k-DG-WBiUyLJIh9k_wD2-56">
          <mxGeometry width="50" height="50" relative="1" as="geometry">
            <mxPoint x="510" y="395" as="sourcePoint" />
            <mxPoint x="950" y="390" as="targetPoint" />
          </mxGeometry>
        </mxCell>
        <mxCell id="k-DG-WBiUyLJIh9k_wD2-58" value="" style="endArrow=none;html=1;rounded=0;entryX=0.31;entryY=0.973;entryDx=0;entryDy=0;entryPerimeter=0;" edge="1" parent="1" source="k-DG-WBiUyLJIh9k_wD2-61" target="k-DG-WBiUyLJIh9k_wD2-56">
          <mxGeometry width="50" height="50" relative="1" as="geometry">
            <mxPoint x="780" y="420" as="sourcePoint" />
            <mxPoint x="780" y="350" as="targetPoint" />
          </mxGeometry>
        </mxCell>
        <mxCell id="k-DG-WBiUyLJIh9k_wD2-56" value="fillMissingValues(missingRecord, bestEntropyRecord)" style="text;strokeColor=none;align=center;fillColor=none;html=1;verticalAlign=middle;whiteSpace=wrap;rounded=0;" vertex="1" parent="1">
          <mxGeometry x="690" y="380" width="290" height="30" as="geometry" />
        </mxCell>
        <mxCell id="k-DG-WBiUyLJIh9k_wD2-59" value="" style="endArrow=classic;html=1;rounded=0;exitX=0;exitY=0.5;exitDx=0;exitDy=0;" edge="1" parent="1" source="k-DG-WBiUyLJIh9k_wD2-61">
          <mxGeometry width="50" height="50" relative="1" as="geometry">
            <mxPoint x="920" y="440" as="sourcePoint" />
            <mxPoint x="510" y="435" as="targetPoint" />
          </mxGeometry>
        </mxCell>
        <mxCell id="k-DG-WBiUyLJIh9k_wD2-60" value="" style="endArrow=classic;html=1;rounded=0;entryX=1;entryY=0.5;entryDx=0;entryDy=0;" edge="1" parent="1" target="k-DG-WBiUyLJIh9k_wD2-61">
          <mxGeometry width="50" height="50" relative="1" as="geometry">
            <mxPoint x="1120" y="435" as="sourcePoint" />
            <mxPoint x="510" y="440" as="targetPoint" />
          </mxGeometry>
        </mxCell>
        <mxCell id="k-DG-WBiUyLJIh9k_wD2-62" value="" style="endArrow=none;html=1;rounded=0;entryX=0.522;entryY=1.023;entryDx=0;entryDy=0;exitX=0.545;exitY=-0.003;exitDx=0;exitDy=0;exitPerimeter=0;entryPerimeter=0;" edge="1" parent="1" source="k-DG-WBiUyLJIh9k_wD2-15" target="k-DG-WBiUyLJIh9k_wD2-61">
          <mxGeometry width="50" height="50" relative="1" as="geometry">
            <mxPoint x="780" y="470" as="sourcePoint" />
            <mxPoint x="780" y="411" as="targetPoint" />
          </mxGeometry>
        </mxCell>
        <mxCell id="k-DG-WBiUyLJIh9k_wD2-61" value="void" style="text;strokeColor=none;align=center;fillColor=none;html=1;verticalAlign=middle;whiteSpace=wrap;rounded=0;" vertex="1" parent="1">
          <mxGeometry x="760" y="420" width="40" height="30" as="geometry" />
        </mxCell>
        <mxCell id="k-DG-WBiUyLJIh9k_wD2-63" value="" style="endArrow=classic;html=1;rounded=0;exitX=1;exitY=0.5;exitDx=0;exitDy=0;" edge="1" parent="1" source="k-DG-WBiUyLJIh9k_wD2-64">
          <mxGeometry width="50" height="50" relative="1" as="geometry">
            <mxPoint x="960" y="280" as="sourcePoint" />
            <mxPoint x="1290" y="275" as="targetPoint" />
          </mxGeometry>
        </mxCell>
        <mxCell id="k-DG-WBiUyLJIh9k_wD2-65" value="" style="endArrow=classic;html=1;rounded=0;" edge="1" parent="1" target="k-DG-WBiUyLJIh9k_wD2-64">
          <mxGeometry width="50" height="50" relative="1" as="geometry">
            <mxPoint x="960" y="275" as="sourcePoint" />
            <mxPoint x="1290" y="280" as="targetPoint" />
          </mxGeometry>
        </mxCell>
        <mxCell id="k-DG-WBiUyLJIh9k_wD2-66" value="" style="endArrow=none;html=1;rounded=0;entryX=0.5;entryY=1;entryDx=0;entryDy=0;exitX=0.5;exitY=0;exitDx=0;exitDy=0;" edge="1" parent="1" source="k-DG-WBiUyLJIh9k_wD2-17" target="k-DG-WBiUyLJIh9k_wD2-64">
          <mxGeometry width="50" height="50" relative="1" as="geometry">
            <mxPoint x="1125" y="470" as="sourcePoint" />
            <mxPoint x="1125" y="100" as="targetPoint" />
          </mxGeometry>
        </mxCell>
        <mxCell id="k-DG-WBiUyLJIh9k_wD2-64" value="calculateEntropy(object, distanceType)" style="text;strokeColor=none;align=center;fillColor=none;html=1;verticalAlign=middle;whiteSpace=wrap;rounded=0;" vertex="1" parent="1">
          <mxGeometry x="1011" y="260" width="230" height="30" as="geometry" />
        </mxCell>
        <mxCell id="k-DG-WBiUyLJIh9k_wD2-67" value="" style="endArrow=classic;html=1;rounded=0;" edge="1" parent="1">
          <mxGeometry width="50" height="50" relative="1" as="geometry">
            <mxPoint x="1744.26" y="320" as="sourcePoint" />
            <mxPoint x="1744.26" y="320" as="targetPoint" />
          </mxGeometry>
        </mxCell>
        <mxCell id="k-DG-WBiUyLJIh9k_wD2-68" value="" style="endArrow=classic;html=1;rounded=0;exitX=1;exitY=0.5;exitDx=0;exitDy=0;" edge="1" parent="1" source="k-DG-WBiUyLJIh9k_wD2-72">
          <mxGeometry width="50" height="50" relative="1" as="geometry">
            <mxPoint x="1290" y="370" as="sourcePoint" />
            <mxPoint x="1940" y="375" as="targetPoint" />
          </mxGeometry>
        </mxCell>
        <mxCell id="k-DG-WBiUyLJIh9k_wD2-70" value="" style="endArrow=classic;html=1;rounded=0;entryX=0;entryY=0.5;entryDx=0;entryDy=0;" edge="1" parent="1" target="k-DG-WBiUyLJIh9k_wD2-69">
          <mxGeometry width="50" height="50" relative="1" as="geometry">
            <mxPoint x="1290" y="325" as="sourcePoint" />
            <mxPoint x="1500" y="320" as="targetPoint" />
          </mxGeometry>
        </mxCell>
        <mxCell id="k-DG-WBiUyLJIh9k_wD2-69" value="calculateEuclideanDistance(fullAttributesObject)(if euclidean)" style="text;strokeColor=none;align=center;fillColor=none;html=1;verticalAlign=middle;whiteSpace=wrap;rounded=0;" vertex="1" parent="1">
          <mxGeometry x="1355.24" y="310" width="335.24" height="30" as="geometry" />
        </mxCell>
        <mxCell id="k-DG-WBiUyLJIh9k_wD2-71" value="" style="endArrow=classic;html=1;rounded=0;exitX=1;exitY=0.5;exitDx=0;exitDy=0;" edge="1" parent="1" source="k-DG-WBiUyLJIh9k_wD2-69">
          <mxGeometry width="50" height="50" relative="1" as="geometry">
            <mxPoint x="1720" y="350" as="sourcePoint" />
            <mxPoint x="1750" y="325" as="targetPoint" />
          </mxGeometry>
        </mxCell>
        <mxCell id="k-DG-WBiUyLJIh9k_wD2-73" value="" style="endArrow=classic;html=1;rounded=0;" edge="1" parent="1" target="k-DG-WBiUyLJIh9k_wD2-72">
          <mxGeometry width="50" height="50" relative="1" as="geometry">
            <mxPoint x="1290" y="375" as="sourcePoint" />
            <mxPoint x="1940" y="370" as="targetPoint" />
          </mxGeometry>
        </mxCell>
        <mxCell id="k-DG-WBiUyLJIh9k_wD2-72" value="calculateHammingDistance(fullAttributesObject)(if hamming)" style="text;strokeColor=none;align=center;fillColor=none;html=1;verticalAlign=middle;whiteSpace=wrap;rounded=0;" vertex="1" parent="1">
          <mxGeometry x="1460" y="360" width="330" height="30" as="geometry" />
        </mxCell>
      </root>
    </mxGraphModel>
  </diagram>
</mxfile>
